PathFileType	4	(X/Y/Z)	OpenSim_Sub05_EMGBaseline_Accel.trc
DataRate	CameraRate	NumFrames	NumMarkers	Units	OrigDataRate	OrigDataStartFrame	OrigNumFrames
100	100	27	8	m	100	1489	11909
Frame#	Time	torso_imu_offset_imu	pelvis_imu_offset_imu	tibia_r_imu_offset_imu	femur_r_imu_offset_imu	tibia_l_imu_offset_imu	femur_l_imu_offset_imu	toes_r_imu_offset_imu	toes_l_imu_offset_imu
				X1	Y1	Z1	X2	Y2	Z2	X3	Y3	Z3	X4	Y4	Z4	X5	Y5	Z5	X6	Y6	Z6	X7	Y7	Z7	X8		Y8	Z8	

1489	14.88000000	8.66178900	-0.65807500	5.56409300	8.92199500	0.20750700	1.96405100	10.00000800	2.14785900	-0.16259100	9.71840500	-1.86932200	1.95112900	11.78863600	-2.45487400	0.41574500	7.50951500	0.90742000	1.82328000	5.53516900	-1.81419400	8.10495300	16.60701600	5.16348400	12.86492900
1490	14.89000000	8.66520200	-0.62521200	5.49269300	8.85102600	0.19495100	1.95212700	10.05115800	1.90329100	-0.04874600	9.24925500	-1.77792200	2.19287400	11.96749600	-1.45609400	1.31449200	8.35120900	2.55892700	2.84799300	5.72905300	-1.97735800	8.01796700	16.70915200	3.84708400	10.59738300
1491	14.90000000	8.79302700	-0.63987000	5.46669000	8.72465000	0.26881200	1.93063800	10.12794800	1.00574100	-0.08388900	9.12062300	-1.68511600	2.48018500	11.82140400	-1.80654300	1.97937800	9.66660200	4.27629400	4.15812800	5.43461100	-1.89068200	8.21834400	16.99319200	2.69083100	8.56713400
1492	14.91000000	8.98554000	-0.73957700	5.42900000	8.79712000	0.39038300	2.05900100	10.15981200	0.12021000	0.00731700	9.28943700	-1.45369200	2.69361100	11.71849500	-2.69414500	2.33012900	10.48053300	5.73646200	5.32973800	5.57642100	-1.53594600	8.26883700	17.79314000	1.93206800	7.28570600
1493	14.92000000	9.10850400	-0.80175900	5.29276700	8.83910500	0.35206700	2.13579100	10.48381800	-0.29708100	0.06803800	9.45766400	-1.27210100	2.56858000	12.54121000	-3.93785400	1.47564700	10.22330000	6.38244700	5.51347000	5.43931500	-1.58247700	8.45860100	18.95444200	0.84176200	6.00182100
1494	14.93000000	9.36713300	-0.78207000	5.37610000	8.83386900	0.20536200	2.15128800	10.80972800	-0.46587500	-0.22640500	9.60959300	-1.05996700	2.13572600	13.10549300	-4.80643000	0.33481100	9.25678600	5.84820600	3.63225200	5.39867300	-1.57287700	8.54413600	19.65247000	-0.54651500	4.02069200
1495	14.94000000	9.50075600	-0.71749900	5.41375300	8.89541200	0.26678400	2.17193500	10.93246700	-0.41537000	0.06354400	10.00425700	-0.86093600	1.89234200	12.49053800	-4.45020600	-0.34887700	8.76628500	5.02562400	1.33282000	5.45183300	-1.58940000	8.63889800	20.33140700	-1.80517300	1.86900300
1496	14.95000000	9.76902400	-0.54324900	5.46370700	8.97615400	0.42573900	2.13810700	11.08808000	-0.47765700	0.08732300	10.48683300	-0.80583400	1.59340700	11.62791500	-3.51135800	-0.43076700	9.07146500	4.73477900	-0.42810100	5.34940100	-1.58449100	8.74323200	21.47863800	-3.14632900	-0.16331200
1497	14.96000000	10.09041700	-0.40430300	5.43792900	9.23748600	0.71895900	2.11007900	11.07913900	-0.23095100	0.04847500	10.46521800	-0.90346600	1.34307300	11.30475800	-2.53901300	-0.36378300	9.48572100	4.71031700	-1.28407300	5.37839200	-1.64004600	8.75866100	21.47964000	-4.06273000	-1.74285500
1498	14.97000000	10.13044600	-0.27179600	5.53507000	9.44940300	0.92241500	2.07387100	11.26895400	-0.13434200	0.51945700	10.36607500	-1.37794700	1.19955200	11.05166900	-2.31001800	-0.73018100	9.70088900	4.57531200	-0.18099000	5.37947300	-1.25219500	8.90862100	20.60847900	-4.34589400	-2.35627800
1499	14.98000000	10.17983100	-0.21740900	5.71045000	9.74105400	0.83574200	1.94109400	11.29877800	-0.06191000	0.57138500	10.36172900	-1.79093100	1.28991900	10.82137300	-2.76778100	-1.42613700	10.04311600	4.27120400	2.69655500	5.64260500	-0.87114800	8.76903800	19.24029700	-1.61859600	-2.32237500
1500	14.99000000	10.20944600	-0.19098100	5.72780400	10.00375800	0.44761100	1.74840500	11.35384800	-0.14797700	0.78047400	10.29150400	-2.04311000	1.68681700	10.96388500	-2.88175700	-1.69090800	10.23102700	3.65907500	5.29409200	5.68516700	-0.66390900	8.87836000	18.13793200	-0.68690800	-3.82836400
1501	15	10.20264200	-0.09120400	5.91261500	10.15705300	0.09123700	1.30032400	11.43937900	0.02391000	1.04256400	10.23576000	-2.19582300	1.87836500	11.31688300	-2.08915700	-1.32921800	10.21682500	2.31231200	6.25591400	5.61078000	-0.88327200	8.78123500	20.23578000	-4.03809000	-3.40001700
1502	15.01000000	10.19419800	0.06282500	5.87982500	10.43279100	-0.03125500	0.95277000	11.54873700	0.08837000	1.26802100	10.18115000	-2.42329800	2.18519100	11.64062700	-1.43685700	0.07776100	9.89725600	0.80765500	6.01519300	5.39854400	-0.76608800	9.26340600	21.12738500	-4.22110300	-3.35487000
1503	15.02000000	10.13411000	0.31135300	5.89573400	10.69617700	0.22525200	1.16673600	11.67118300	-0.15254800	1.13450100	10.37132000	-2.61785000	2.64805500	12.03497300	-1.79029000	0.83880500	9.69224400	0.57914900	4.13514900	5.50580100	-0.95232800	9.43754000	5.91493300	-2.71208000	5.39322100
1504	15.03000000	10.21318800	0.52047500	6.06544500	11.11507100	0.30821600	1.61370600	12.12217400	-0.59091800	0.91964800	10.96213900	-2.98490200	2.54012100	12.32595200	-3.07357500	1.49560900	9.89053600	0.62072700	1.31559400	5.09276500	-1.49842200	9.67152600	8.35376300	8.30896300	22.62963000
1505	15.04000000	10.74897700	0.86139200	6.25116200	11.57006100	0.13031900	2.01960900	13.02321800	-0.54007000	0.49867400	11.41664600	-3.18293500	2.22347800	10.74208000	-2.64651800	2.75269100	9.86440100	-0.40130200	-1.60130700	5.15257000	-2.26734700	9.85447600	3.19747100	4.46944000	17.96628000
1506	15.05000000	11.37832700	1.21914000	6.18172500	12.08722500	0.08694000	2.35586600	14.05877300	-0.56859600	1.16840800	11.60985300	-2.83800700	2.32009500	9.62508200	0.22013500	5.23344400	9.83593000	0.08478000	-0.96122900	4.86779200	-2.40782000	9.91424700	1.93302300	-4.32867200	11.13493400
1507	15.06000000	11.45219400	1.50196500	6.23312200	12.45936500	-0.12353200	2.93761400	14.84593500	-0.66144100	1.40415200	11.83045400	-2.67925300	2.36367600	8.74073400	1.48334000	6.91707500	10.88694900	2.64058600	-0.08153200	5.16775500	-2.21294500	10.13883600	8.68850000	-4.48551500	13.77747000
1508	15.07000000	11.21585400	1.56077800	6.26222000	12.52219400	-0.30253900	3.61367300	15.24927900	-0.46956800	1.95334100	11.81477700	-3.10818100	2.15552300	9.85022700	-1.80366900	5.32714400	11.78062800	3.04635800	0.06152300	5.27557600	-2.51914700	10.54764800	13.93380700	-0.65672400	16.01875000
1509	15.08000000	11.04826700	1.65803100	6.26696600	12.16538000	-0.26731900	4.33301300	15.70697400	0.22502800	2.48441600	11.41318300	-3.55643200	2.09892400	12.20126600	-4.73138300	2.31496900	11.52343500	2.00013000	0.93388000	5.36139000	-2.63067000	10.85042200	10.52570200	2.49380400	12.76564400
1510	15.09000000	10.93753800	1.81956600	6.35540600	11.48764200	-0.51298300	4.77595900	16.27265600	0.86464700	2.83602300	11.05014500	-3.50157100	2.42706200	12.68651000	-4.96601800	-1.20837700	12.32959600	1.76717500	1.87559600	6.85009600	-3.70563400	10.60971700	8.78487400	7.06232000	11.09196500
1511	15.10000000	10.69938600	2.01624000	6.20619600	10.65629300	-0.92363800	4.83358000	17.21662500	-1.35737900	2.51443000	10.64951100	-3.35259000	3.02870700	11.51406100	-4.03087100	-3.36833400	12.53783700	2.25793300	1.85093600	7.99658100	-6.16388700	10.19852200	8.61413400	7.62952500	11.51409700
1512	15.11000000	10.01063400	2.17915300	5.89198700	9.87666000	-1.23533200	4.84806200	17.25784600	-6.08562100	1.56836800	10.12949100	-2.87214600	3.77322400	10.70757700	-3.55342400	-2.80351700	10.90379600	2.18713900	0.86760400	12.33476100	-4.97747200	10.62490800	7.75961100	2.85581200	11.96275200
1513	15.12000000	9.25746600	2.42402400	5.55172300	9.12689700	-1.46952600	4.63117000	15.98490400	-8.21223300	1.43477700	9.88981700	-2.31902200	3.91124300	10.50847300	-3.64102700	-1.64922900	9.31251100	1.29730800	-0.76307500	14.23228600	-1.96541000	10.71928000	6.64923000	0.07350600	12.13529000
1514	15.13000000	8.54567400	2.57918900	5.17900300	8.55935300	-1.65177400	4.37096700	13.75012800	-5.57557200	0.13155800	9.92459700	-1.86246500	3.72451900	9.72578800	-3.85145600	-0.73856600	8.96031400	-0.11800900	-1.80606900	20.33576000	-2.32097100	10.40294000	5.50030000	1.07298000	11.48640200
1515	15.14000000	8.01814700	2.74384600	4.84311100	8.19411400	-1.54185300	4.01516200	11.55660400	-0.26739000	-1.00078300	10.04616400	-1.49730300	3.82923800	8.83168800	-3.59595400	-0.48131700	9.22011400	-1.28073800	-1.36628900	18.97959800	-5.02668900	8.92525100	4.86871200	3.40156000	11.53049000
